# xmcd
#
# Track frame offsets:
#	150
#	2869
#	17195
#	28368
#	40080
#	52505
#	69978
#	84161
#	95365
#	107811
#	120366
#	134099
#	150358
#	164576
#	178315
#	192110
#	202974
#	213964
#	225213
#	239875
#	251670
#	265598
#	279950
#	293034
#	307069
#
# Disc length: 4275 seconds
#
# Revision: 1
# Processed by: cddbd v1.5.2PL0 Copyright (c) Steve Scherf et al.
# Submitted via: audiograbber 1.83.01
#
DISCID=5210b119
DTITLE=Antonio aguilar - 25 exitos
DYEAR=2007
DGENRE=ranchero
TTITLE0=intro
TTITLE1=el mero dia de san juan
TTITLE2=anillo grabado
TTITLE3=noches tenebrosas
TTITLE4=pero hombre amigo
TTITLE5=tristes recuerdos
TTITLE6=que me entierren con la bandaPista  7
TTITLE7=que milagro chaparrita
TTITLE8=y la luna va saliendo
TTITLE9=de mañana en ocho dias
TTITLE10=que falta me hace mi padre
TTITLE11=el morro de cumpas
TTITLE12=arboles de la barranca
TTITLE13=por esa calle vive
TTITLE14=lamberto quintero
TTITLE15=bonita finca de adobe
TTITLE16=no me vengas a llorar
TTITLE17=dos seres que se aman
TTITLE18=busaca otro amor
TTITLE19=albur de amor
TTITLE20=cuando dos almas
TTITLE21=valentin de la sierra
TTITLE22=la tumba abandonada
TTITLE23=el adolorido
TTITLE24=alta y delgada
EXTD=
EXTT0=
EXTT1=
EXTT2=
EXTT3=
EXTT4=
EXTT5=
EXTT6=
EXTT7=
EXTT8=
EXTT9=
EXTT10=
EXTT11=
EXTT12=
EXTT13=
EXTT14=
EXTT15=
EXTT16=
EXTT17=
EXTT18=
EXTT19=
EXTT20=
EXTT21=
EXTT22=
EXTT23=
EXTT24=
PLAYORDER=
